<svg xmlns="http://www.w3.org/2000/svg" xmlns:xlink="http://www.w3.org/1999/xlink" width="500" zoomAndPan="magnify" viewBox="0 0 375 374.999991" height="500" preserveAspectRatio="xMidYMid meet" version="1.0"><defs><clipPath id="id1"><path d="M 269.296875 111.421875 L 368.296875 111.421875 L 368.296875 236.890625 L 269.296875 236.890625 Z M 269.296875 111.421875 " clip-rule="nonzero"/></clipPath><clipPath id="id2"><path d="M 6.925781 111.421875 L 105.703125 111.421875 L 105.703125 236.890625 L 6.925781 236.890625 Z M 6.925781 111.421875 " clip-rule="nonzero"/></clipPath><clipPath id="id3"><path d="M 205 94 L 268 94 L 268 254 L 205 254 Z M 205 94 " clip-rule="nonzero"/></clipPath><clipPath id="id4"><path d="M 153.945312 148.0625 L 262.421875 91.691406 L 318.792969 200.171875 L 210.316406 256.542969 Z M 153.945312 148.0625 " clip-rule="nonzero"/></clipPath><clipPath id="id5"><path d="M 153.945312 148.0625 L 262.421875 91.691406 L 318.792969 200.171875 L 210.316406 256.542969 Z M 153.945312 148.0625 " clip-rule="nonzero"/></clipPath><clipPath id="id6"><path d="M 153.945312 148.0625 L 262.421875 91.691406 L 318.792969 200.171875 L 210.316406 256.542969 Z M 153.945312 148.0625 " clip-rule="nonzero"/></clipPath><clipPath id="id7"><path d="M 125 99.101562 L 127 99.101562 L 127 104 L 125 104 Z M 125 99.101562 " clip-rule="nonzero"/></clipPath></defs><g clip-path="url(#id1)"><path fill="#000000" d="M 295.121094 111.421875 L 269.296875 111.421875 L 342.546875 174.15625 L 269.296875 236.890625 L 295.121094 236.890625 L 368.371094 174.15625 L 295.121094 111.421875 " fill-opacity="1" fill-rule="nonzero"/></g><g clip-path="url(#id2)"><path fill="#000000" d="M 79.878906 111.421875 L 105.703125 111.421875 L 32.453125 174.15625 L 105.703125 236.890625 L 79.878906 236.890625 L 6.628906 174.15625 L 79.878906 111.421875 " fill-opacity="1" fill-rule="nonzero"/></g><g clip-path="url(#id3)"><g clip-path="url(#id4)"><g clip-path="url(#id5)"><g clip-path="url(#id6)"><path fill="#000000" d="M 261.335938 95.132812 C 261.882812 95.304688 262.410156 95.527344 262.914062 95.804688 C 263.417969 96.082031 263.886719 96.402344 264.328125 96.773438 C 264.769531 97.140625 265.167969 97.550781 265.527344 97.996094 C 265.886719 98.445312 266.199219 98.925781 266.460938 99.433594 C 266.726562 99.945312 266.941406 100.472656 267.101562 101.027344 C 267.261719 101.578125 267.363281 102.140625 267.414062 102.710938 C 267.464844 103.285156 267.457031 103.855469 267.394531 104.425781 C 267.328125 104.996094 267.210938 105.554688 267.039062 106.101562 L 222.375 247.402344 C 222.203125 247.949219 221.976562 248.476562 221.699219 248.976562 C 221.425781 249.480469 221.101562 249.953125 220.730469 250.390625 C 220.363281 250.832031 219.953125 251.230469 219.503906 251.589844 C 219.058594 251.949219 218.578125 252.261719 218.070312 252.523438 C 217.558594 252.789062 217.03125 253.003906 216.480469 253.164062 C 215.925781 253.324219 215.367188 253.425781 214.792969 253.476562 C 214.222656 253.527344 213.652344 253.519531 213.082031 253.457031 C 212.507812 253.394531 211.949219 253.277344 211.402344 253.105469 C 210.855469 252.929688 210.332031 252.707031 209.828125 252.429688 C 209.324219 252.152344 208.851562 251.828125 208.414062 251.460938 C 207.972656 251.089844 207.574219 250.683594 207.214844 250.234375 C 206.855469 249.785156 206.542969 249.308594 206.28125 248.796875 C 206.015625 248.289062 205.804688 247.757812 205.640625 247.207031 C 205.480469 246.65625 205.378906 246.09375 205.328125 245.523438 C 205.277344 244.949219 205.285156 244.378906 205.347656 243.808594 C 205.410156 243.238281 205.527344 242.679688 205.703125 242.132812 L 250.363281 100.832031 C 250.535156 100.285156 250.761719 99.757812 251.035156 99.257812 C 251.3125 98.753906 251.636719 98.28125 252.003906 97.839844 C 252.375 97.402344 252.78125 97 253.230469 96.640625 C 253.679688 96.28125 254.15625 95.96875 254.667969 95.707031 C 255.175781 95.441406 255.707031 95.230469 256.257812 95.070312 C 256.808594 94.910156 257.371094 94.804688 257.945312 94.753906 C 258.515625 94.703125 259.085938 94.710938 259.660156 94.777344 C 260.230469 94.839844 260.789062 94.957031 261.335938 95.132812 Z M 261.335938 95.132812 " fill-opacity="1" fill-rule="nonzero"/></g></g></g></g><path fill="#000000" d="M 179.4375 234.007812 C 178.921875 233.832031 178.628906 234.054688 178.3125 234.195312 C 178.648438 234.164062 179.015625 234.351562 179.4375 234.007812 Z M 141.238281 226.390625 C 140.332031 226.234375 140.273438 226.257812 140.3125 226.714844 C 140.582031 226.621094 140.839844 226.53125 141.238281 226.390625 Z M 122 240.15625 C 122.054688 240.164062 122.105469 240.167969 122.160156 240.175781 C 122.230469 239.980469 122.300781 239.78125 122.429688 239.433594 C 122.105469 239.53125 121.949219 239.585938 121.757812 239.640625 C 121.859375 239.859375 121.929688 240.003906 122 240.15625 Z M 142.828125 146.886719 C 142.984375 147.898438 142.902344 147.617188 143.21875 147.84375 C 143.402344 147.570312 143.148438 146.945312 142.828125 146.886719 Z M 175.097656 233.84375 C 175.5 233.855469 175.894531 233.839844 176.167969 233.398438 C 175.316406 233.539062 175.316406 233.539062 175.097656 233.84375 Z M 169.429688 217.882812 C 169.804688 217.664062 170.207031 217.769531 170.371094 217.367188 C 169.722656 217.273438 169.667969 217.296875 169.429688 217.882812 Z M 169.175781 217.964844 C 168.710938 217.542969 168.710938 217.542969 168.03125 217.894531 C 168.40625 218.085938 168.746094 218.03125 169.175781 217.964844 Z M 119.867188 235.304688 C 119.390625 235.429688 119.167969 235.738281 119.417969 236 C 119.550781 235.976562 119.722656 235.953125 119.914062 235.917969 C 119.898438 235.671875 119.878906 235.492188 119.867188 235.304688 Z M 141.148438 225.785156 C 140.898438 225.8125 140.730469 225.835938 140.558594 225.855469 C 140.570312 225.683594 140.582031 225.578125 140.59375 225.445312 C 140.039062 225.527344 140.285156 225.808594 140.324219 226.0625 C 140.628906 226.035156 140.953125 226.257812 141.148438 225.785156 Z M 120.234375 234.234375 C 119.878906 234.09375 119.65625 234.003906 119.40625 233.902344 C 119.390625 234.054688 118.820312 235.597656 120.234375 234.234375 Z M 122.753906 111.320312 C 122.703125 111.324219 122.648438 111.332031 122.597656 111.335938 C 122.5625 111.886719 122.523438 112.433594 122.71875 113.03125 C 122.882812 112.816406 123.011719 112.640625 123.101562 112.515625 C 122.976562 112.074219 122.867188 111.699219 122.753906 111.320312 Z M 121.667969 115.742188 C 121.597656 116.4375 121.628906 117.128906 121.78125 117.8125 C 122.128906 116.320312 122.128906 116.320312 121.667969 115.742188 Z M 142.4375 243.542969 C 141.925781 244.804688 141.824219 244.828125 142.0625 245.242188 C 142.390625 244.605469 142.675781 244.0625 142.984375 243.460938 C 142.710938 243.5 142.535156 243.53125 142.4375 243.542969 Z M 119.992188 240.355469 C 120.171875 239.261719 119.828125 238.296875 119.902344 237.246094 C 119.488281 237.742188 119.523438 238.566406 119.992188 240.355469 Z M 145.101562 236.113281 C 144.5 236.082031 144.421875 236.136719 144.429688 236.609375 C 143.480469 236.703125 143.480469 236.703125 143.402344 237.269531 C 143.605469 237.136719 143.792969 237.007812 143.984375 236.878906 C 144.265625 237.089844 144.539062 237.136719 144.746094 236.964844 C 144.878906 236.648438 144.980469 236.40625 145.101562 236.113281 Z M 185.199219 209.511719 C 183.707031 210.082031 183.707031 210.082031 183.554688 210.476562 C 184.75 210.246094 185.363281 210.277344 185.199219 209.511719 Z M 148.101562 230.109375 C 148.082031 230.066406 148.070312 230.027344 148.054688 229.980469 C 144.265625 230.730469 145.082031 230.472656 144.230469 231.019531 C 144.429688 231.042969 147.765625 230.417969 148.101562 230.109375 Z M 183.28125 232.546875 C 182.976562 232.285156 182.527344 232.558594 182.359375 232.167969 C 182.078125 232.46875 182.136719 232.332031 182.21875 232.738281 C 181.605469 232.277344 181.628906 233.277344 181.148438 233.230469 C 180.667969 233.183594 180.46875 233.582031 180.121094 233.726562 C 180.734375 233.96875 182.316406 232.960938 183.28125 232.546875 Z M 176.074219 215.167969 C 175.800781 215.234375 173.007812 216.023438 172.542969 216.730469 C 172.695312 216.710938 176.417969 215.910156 176.074219 215.167969 Z M 122.925781 163.433594 C 122.878906 163.441406 122.835938 163.441406 122.789062 163.441406 C 122.582031 165.140625 122.703125 165.273438 122.328125 165.609375 C 121.5625 166.28125 123.964844 167.492188 122.925781 163.433594 Z M 118.113281 234.082031 C 118.066406 233.933594 117.875 232.699219 117.207031 233.210938 C 118.113281 236.070312 117.214844 233.710938 117.9375 236.253906 C 118.160156 236.042969 118.300781 235.914062 118.460938 235.761719 C 118.230469 235.515625 117.933594 235.234375 118.125 234.773438 C 118.449219 234.984375 118.613281 234.847656 118.761719 234.527344 C 118.558594 234.457031 118.390625 234.40625 118.179688 234.335938 C 118.371094 234.222656 118.496094 234.160156 118.617188 234.089844 C 118.605469 234.066406 118.59375 234.046875 118.582031 234.023438 C 118.4375 234.042969 118.296875 234.058594 118.113281 234.082031 Z M 156.546875 221.679688 C 154.9375 221.085938 154.945312 222.359375 154.183594 221.769531 C 153.746094 221.421875 152.851562 221.675781 152.476562 222.136719 C 152.414062 222.054688 152.355469 221.980469 152.320312 221.933594 C 148.71875 223.464844 149.742188 223.125 149.375 222.6875 C 148.800781 223.347656 148.753906 223.726562 146.386719 223.960938 C 145.664062 224.035156 144.945312 224.496094 144.167969 223.960938 C 144.167969 224.292969 144.167969 224.542969 144.167969 224.796875 C 144.066406 224.796875 143.972656 224.800781 143.78125 224.8125 C 143.972656 225.054688 144.109375 225.363281 144.253906 225.367188 C 144.417969 225.375 156.429688 221.828125 156.546875 221.679688 Z M 140.652344 117.695312 C 140.945312 123.113281 141.792969 125.910156 141.972656 131.519531 C 141.828125 131.757812 142.554688 144.824219 142.820312 145.21875 C 143.367188 144.234375 142.121094 118.882812 140.652344 117.695312 Z M 139.910156 210 C 140.105469 211.300781 140.277344 223.648438 140.277344 224.871094 C 142.121094 224.742188 140.40625 220.902344 140.945312 198.664062 C 141.367188 181.105469 141.039062 181.640625 141.613281 181.09375 C 141.011719 179.636719 140.664062 179.78125 141.125 178.917969 C 140.675781 178.015625 141.195312 175.359375 140.859375 174.847656 C 141.125 174.351562 140.921875 173.898438 140.8125 173.40625 C 140.636719 172.582031 141.113281 172.492188 140.71875 170.808594 C 140.273438 171.15625 140.652344 209.84375 139.910156 210 Z M 203.523438 153.246094 C 203.558594 153.234375 203.59375 153.214844 203.628906 153.199219 C 202.945312 147.816406 196.367188 140.527344 192.597656 136.761719 C 192.785156 136.328125 192.265625 136.308594 192.101562 136.007812 C 192.738281 135.230469 188.988281 132.683594 188.238281 132.367188 C 188.097656 131.933594 183.691406 129.425781 183.082031 128.339844 C 182.632812 127.542969 182.371094 128.265625 181.488281 127.28125 C 176.757812 122.015625 157.351562 119.859375 156.539062 120.96875 C 156.523438 120.992188 155.300781 121.027344 154.761719 120.839844 C 153.195312 120.285156 149.992188 121.097656 148.621094 120.414062 C 148.304688 120.257812 147.988281 120.058594 147.597656 120.128906 C 147.371094 120.167969 146.066406 118.847656 145.136719 119.316406 C 144.925781 119.421875 144.265625 118.636719 143.820312 119.480469 C 143.515625 119.238281 143.242188 119.023438 142.972656 118.804688 C 142.933594 118.835938 142.890625 118.863281 142.851562 118.886719 C 142.910156 119.496094 143.273438 122.414062 143.746094 122.804688 C 143.878906 120.730469 143.761719 122.335938 143.582031 119.78125 C 143.632812 119.78125 143.6875 119.777344 143.738281 119.777344 C 144.335938 122.308594 144.523438 124.886719 144.617188 127.503906 C 144.433594 127.542969 144.257812 127.589844 144.03125 127.644531 C 144.085938 128.738281 144.132812 129.796875 144.183594 130.863281 C 144.078125 130.917969 143.972656 130.980469 143.890625 131.027344 C 143.902344 131.179688 144.785156 145.910156 144.605469 146.109375 C 145.160156 146.839844 146.871094 175 145.839844 175.019531 C 145.839844 175.019531 145.667969 168.511719 145.46875 163.386719 C 145.429688 162.410156 144.945312 162.941406 144.867188 162.199219 C 144.851562 162.046875 144.289062 153.941406 144.289062 152.316406 C 145.070312 151.9375 144.324219 151.976562 144.214844 151.824219 C 144.335938 150.730469 143.9375 151.386719 143.890625 149.769531 C 143.878906 149.394531 143.761719 149.050781 143.453125 148.773438 C 143.371094 149.511719 145.089844 174.820312 144.351562 175.597656 C 144.746094 176.058594 144.605469 177.824219 144.476562 177.976562 C 143.726562 178.847656 144.515625 178.730469 144.65625 180.699219 C 144.878906 183.875 144.75 182.3125 144.6875 183.78125 C 144.097656 196.550781 142.816406 201.234375 143.5625 217.742188 C 143.757812 217.425781 143.875 217.238281 144.019531 217 C 144.457031 217.730469 143.972656 217.945312 144.136719 218.601562 C 144.277344 219.136719 144.28125 219.652344 144.003906 220.089844 C 144.40625 221.085938 144.171875 219.792969 144.171875 223.613281 C 145.570312 223.585938 158.128906 219.507812 161.847656 219.296875 C 162.367188 219.265625 162.800781 219.167969 163.167969 218.734375 C 163.53125 219.367188 164.179688 219.066406 164.792969 219.21875 C 163.523438 220.167969 162.859375 218.925781 161.988281 220.109375 C 161.898438 220.019531 161.820312 219.933594 161.738281 219.84375 C 158.292969 220.949219 158.785156 220.570312 158.941406 221.410156 C 160.414062 221.019531 167.792969 219.417969 167.167969 218.347656 C 166.566406 218.285156 166.554688 218.277344 166.507812 217.710938 C 167.914062 218.121094 176.859375 214.027344 177.484375 214.4375 C 177.238281 214.585938 177.050781 214.707031 176.847656 214.828125 C 177.347656 215.550781 177.261719 214.484375 178.582031 214.457031 C 178.640625 214.457031 178.699219 214.367188 178.757812 214.328125 C 178.75 214.285156 178.738281 214.246094 178.734375 214.203125 C 178.425781 214.203125 178.113281 214.203125 177.8125 214.203125 C 177.804688 214.167969 177.804688 214.128906 177.800781 214.09375 C 178.042969 213.941406 178.289062 213.789062 178.523438 213.648438 C 178.472656 213.496094 178.4375 213.398438 178.355469 213.171875 C 178.683594 213.296875 178.886719 213.367188 179.125 213.460938 C 179.207031 213.257812 179.285156 213.078125 179.355469 212.902344 C 180.042969 213.089844 180.347656 212.917969 180.699219 212.128906 C 180.382812 212.183594 180.121094 212.230469 179.855469 212.269531 C 180.804688 211.570312 184.566406 209.703125 184.566406 208.972656 C 187.859375 208.019531 201.207031 197.101562 204.394531 187.199219 C 205.734375 183.039062 204.996094 186.59375 206.527344 179.046875 C 205.941406 178.828125 206.152344 180.179688 205.492188 180.816406 C 205.457031 180.792969 205.417969 180.769531 205.375 180.746094 C 206.304688 178.550781 208.585938 164.730469 206.3125 164.335938 C 206.195312 164.554688 206.078125 164.789062 205.925781 165.09375 C 205.925781 164.8125 205.910156 164.601562 205.929688 164.398438 C 206.585938 158.101562 202.699219 155.121094 203.074219 152.625 C 203.253906 152.878906 203.390625 153.058594 203.523438 153.246094 Z M 121.089844 238.75 C 120.375 239.589844 120.511719 238.632812 121.148438 241.152344 C 121.398438 240.863281 121.558594 240.6875 121.738281 240.476562 C 121.574219 240.402344 121.445312 240.34375 121.242188 240.25 C 121.410156 239.804688 121.574219 239.386719 121.75 238.941406 C 121.539062 238.886719 121.300781 238.828125 121.058594 238.773438 C 121.125 238.644531 121.195312 238.507812 121.253906 238.386719 C 121.117188 238.261719 121.015625 238.164062 120.890625 238.050781 C 121.363281 237.835938 121.792969 237.648438 122.324219 237.410156 C 121.324219 237.25 121.304688 236.878906 120.445312 237.285156 C 120.480469 237.800781 120.515625 238.304688 120.550781 238.871094 C 120.773438 238.816406 120.933594 238.785156 121.089844 238.75 Z M 156.890625 221.109375 C 156.902344 220.949219 156.910156 220.785156 156.925781 220.492188 C 156.433594 220.785156 155.914062 220.523438 155.515625 220.898438 C 156.5 220.992188 156.855469 220.703125 156.890625 221.097656 C 157.664062 221.121094 158.21875 221.039062 158.515625 220.820312 C 157.1875 220.886719 157.628906 220.828125 156.890625 221.109375 Z M 141.40625 246.953125 C 141.59375 246.691406 141.746094 246.417969 141.683594 245.996094 C 141.519531 246.128906 141.394531 246.230469 141.230469 246.359375 C 141.488281 245.324219 141.734375 244.34375 141.992188 243.3125 C 141.484375 243.621094 141.800781 243.484375 140.378906 246.042969 C 140.226562 245.867188 140.128906 245.757812 140.039062 245.65625 C 139.566406 245.839844 139.921875 246.246094 139.707031 246.597656 C 139.601562 246.199219 139.53125 245.832031 139.167969 245.921875 C 137.105469 248.207031 137.707031 247.636719 136.867188 247.964844 C 136.75 248.21875 136.820312 248.730469 136.320312 248.917969 C 136.175781 248.742188 136.019531 248.566406 135.855469 248.382812 C 135.667969 248.484375 135.492188 248.589844 135.417969 248.632812 C 135.007812 248.496094 134.683594 248.386719 134.3125 248.265625 C 134.230469 246.902344 133.59375 246.820312 133.183594 247.113281 C 132.347656 247.714844 131.652344 246.953125 130.332031 247.925781 C 129.851562 247.671875 129.039062 248.054688 128.804688 247.199219 C 126.792969 247.820312 128.425781 247.808594 126.046875 248.914062 C 125.507812 248.867188 126.003906 248.253906 125.378906 247.976562 C 125.15625 247.996094 125.058594 248.519531 124.777344 248.046875 C 124.683594 248.230469 124.625 248.339844 124.554688 248.46875 C 124.261719 248.351562 124.183594 247.953125 123.753906 248.359375 C 123.40625 248.683594 123.007812 248.9375 122.902344 248.472656 C 122.714844 247.683594 122.023438 247.976562 121.570312 247.785156 C 120.898438 248.300781 120.804688 246.964844 119.558594 247.316406 C 119.308594 246.417969 119.066406 245.558594 118.828125 244.691406 C 118.792969 244.710938 118.699219 244.78125 118.582031 244.855469 C 118.242188 244.15625 117.390625 240.308594 117.84375 239.648438 C 117.371094 239.269531 117.371094 239.269531 116.910156 239.707031 C 116.847656 239.292969 116.789062 238.921875 116.742188 238.613281 C 116.964844 238.496094 117.238281 238.433594 117.242188 238.339844 C 117.285156 237.9375 117.402344 237.496094 117.054688 237.113281 C 116.558594 237.332031 116.953125 237.800781 116.777344 238.132812 C 116.472656 237.148438 116.464844 237.113281 116.578125 236.609375 C 116.652344 236.714844 116.71875 236.800781 116.789062 236.90625 C 117.179688 235.988281 117.132812 235.84375 116.378906 235.59375 C 116.253906 235.042969 116.289062 235.265625 116.261719 234.746094 C 115.308594 234.582031 117.171875 243.25 116.476562 244.371094 C 116.261719 243.902344 114.492188 234.007812 114.886719 234.042969 C 115.226562 234.953125 115.25 235.925781 115.488281 236.871094 C 115.488281 235.964844 115.488281 235.054688 115.488281 234.046875 C 115.894531 234.433594 116.261719 234.28125 116.570312 234.152344 C 117.085938 233.945312 116.449219 230.933594 116.449219 230.5 C 116.507812 230.488281 116.566406 230.484375 116.625 230.472656 C 116.695312 230.722656 116.695312 231.042969 116.851562 231.203125 C 117.066406 231.429688 116.578125 231.75 117.03125 231.925781 C 117.195312 231.984375 117.226562 232.390625 117.320312 232.652344 C 117.523438 232.609375 117.730469 232.570312 117.902344 232.527344 C 118.121094 232.214844 117.832031 231.703125 118.378906 231.511719 C 118.441406 231.664062 118.496094 231.792969 118.558594 231.945312 C 118.785156 231.757812 119.007812 231.578125 119.289062 231.347656 C 119.371094 231.570312 119.425781 231.714844 119.503906 231.957031 C 119.632812 231.804688 119.722656 231.691406 119.828125 231.570312 C 120.167969 231.851562 121.535156 231.371094 121.632812 230.78125 C 121.644531 230.722656 121.761719 230.675781 121.828125 230.625 C 121.820312 231.308594 122.765625 230.804688 123.019531 230.367188 C 122.574219 230.464844 122.195312 230.554688 121.808594 230.636719 C 121.914062 229.863281 123.660156 230.273438 123.636719 229.355469 C 123.632812 229.050781 123.644531 228.746094 123.230469 228.683594 C 124.046875 227.671875 123.714844 221.46875 123.40625 220.171875 C 123.394531 220.167969 123.304688 220.144531 123.152344 220.109375 C 123.738281 219.746094 122.976562 199.601562 122.730469 199.445312 C 123.632812 198.382812 122.453125 197.746094 122.949219 196.996094 C 123.136719 196.714844 123.28125 196.367188 122.902344 196.054688 C 122.902344 196.054688 123.613281 193.628906 123.230469 191.648438 C 122.972656 192.003906 123.21875 192.414062 122.800781 192.757812 C 122.800781 190.449219 122.707031 191.121094 123.300781 190.378906 C 122.890625 189.128906 122.890625 190.070312 122.820312 188.671875 C 122.773438 188.660156 122.726562 188.65625 122.679688 188.644531 C 122.28125 189.8125 122.21875 196.878906 122.21875 198.207031 C 121.503906 197.984375 122.09375 189.847656 122.066406 189.695312 C 122.007812 189.390625 121.503906 185.0625 121.859375 184.355469 C 121.457031 184.085938 120.972656 181.3125 121.5 180.199219 C 121.40625 180.109375 121.316406 180.011719 121.152344 179.839844 C 121.488281 179.851562 121.726562 179.863281 121.984375 179.875 C 122.207031 179.027344 122.035156 174.824219 122.066406 173.839844 C 122.082031 173.242188 122.65625 172.863281 122.386719 172.703125 C 122.011719 172.476562 122.164062 172.242188 121.492188 172.441406 C 121.234375 171.757812 122 172.144531 122.457031 172.296875 C 122.558594 171.996094 122.636719 171.738281 122.761719 171.378906 C 122.371094 171.488281 122.113281 171.558594 121.722656 171.667969 C 122.667969 169.746094 121.785156 166.65625 121.714844 166.039062 C 121.3125 165.914062 121.3125 165.914062 121.03125 166.757812 C 120.945312 166.539062 120.875 166.375 120.808594 166.203125 C 121.003906 165.914062 121.457031 165.402344 121.410156 164.832031 C 121.398438 164.679688 120.960938 162.796875 121.382812 162.558594 C 120.910156 161.257812 121.183594 161.773438 120.300781 161.535156 C 120.394531 161.335938 120.46875 161.175781 120.5625 160.996094 C 120.78125 161.101562 120.945312 161.183594 121.148438 161.289062 C 121.1875 161.160156 121.257812 161.0625 121.253906 160.96875 C 121.019531 157.972656 120.003906 160.042969 120.234375 160.84375 C 120.265625 160.933594 120.148438 161.066406 120.109375 161.152344 C 119.75 161.121094 120.054688 160.492188 119.515625 160.699219 C 119.617188 161.710938 119.855469 188.269531 118.886719 187.550781 C 117.933594 188.101562 118.957031 188.480469 118.003906 189.867188 C 117.996094 189.71875 118.632812 167.109375 118.039062 164.636719 C 117.816406 163.71875 117.578125 164.601562 117.496094 163.289062 C 117.484375 163.136719 117.273438 159.738281 117.371094 159.261719 C 116.628906 158.695312 116.863281 151 117 150.375 C 115.835938 149.632812 115.859375 112.785156 115.074219 111.414062 C 114.894531 111.453125 114.675781 111.503906 114.410156 111.5625 C 114.328125 111.109375 114.226562 112.167969 115.28125 106.679688 C 116.082031 106.53125 115.386719 107.414062 115.601562 108.234375 C 116.394531 108.3125 116.476562 101.640625 116.542969 100.597656 C 117.324219 100.878906 117.042969 103.195312 117.191406 104.136719 C 117.472656 104.136719 117.734375 104.136719 118.027344 104.136719 C 118.171875 104.386719 117.425781 110.300781 117.226562 111.078125 C 116.59375 113.597656 117.207031 115.265625 116.804688 116.859375 C 116.734375 117.117188 117.179688 118.070312 116.730469 118.753906 C 116.636719 118.882812 116.648438 118.777344 117.085938 120.011719 C 117.59375 119.082031 116.839844 118.035156 117.6875 117.71875 C 117.566406 117.574219 117.472656 117.46875 117.359375 117.339844 C 117.839844 116.765625 117.664062 116.105469 117.558594 115.464844 C 117.371094 114.316406 118.066406 112.421875 118.144531 111.890625 C 118.417969 110.054688 118.320312 109.109375 118.273438 108.140625 C 118.332031 108.109375 118.390625 108.082031 118.449219 108.046875 C 118.464844 108.179688 118.488281 108.3125 118.5 108.402344 C 119.261719 107.992188 119.183594 108.097656 119.59375 108.671875 C 119.785156 107.71875 119.734375 108.558594 119.761719 105.921875 C 119.761719 105.601562 120.277344 105.152344 119.910156 104.515625 C 121.105469 104.457031 121.035156 110.484375 122.234375 112.503906 C 122.570312 111.414062 121.941406 110.394531 122.007812 109.300781 C 122.164062 109.277344 122.304688 109.261719 122.445312 109.242188 C 122.464844 109.160156 121.9375 106.992188 121.917969 106.921875 C 121.488281 105.164062 122.140625 105.199219 121.363281 104.246094 C 121.257812 104.117188 121.207031 103.953125 121.183594 103.753906 C 122.046875 104.648438 121.597656 103.175781 122.742188 104.996094 C 123.105469 104.242188 123.105469 104.242188 122.925781 103.3125 C 123.695312 103.601562 124.019531 104.402344 124.929688 106.214844 C 125.574219 105.808594 124.671875 105.433594 124.953125 104.941406 C 125.105469 105.121094 125.246094 105.285156 125.457031 105.539062 C 125.597656 104.75 125.332031 104.375 126.023438 104.128906 C 126.234375 104.503906 127.390625 104.894531 127.554688 104.742188 C 127.816406 104.496094 128.117188 104.503906 128.5 104.660156 C 128.378906 104.113281 128.441406 104.308594 128.242188 103.929688 C 129.769531 103.476562 130.890625 107.871094 132.042969 110.613281 C 130.839844 110.832031 132.148438 113.804688 133.375 116.8125 C 133.417969 116.808594 133.464844 116.796875 133.503906 116.785156 C 132.996094 114.148438 133.007812 113.371094 133.003906 113.335938 C 131.273438 112.46875 134.082031 113.265625 132.816406 108.707031 C 132.96875 108.71875 133.101562 108.722656 133.265625 108.734375 C 133.292969 108.625 133.324219 108.511719 133.371094 108.359375 C 134.742188 110.183594 133.925781 106.71875 133.089844 104.609375 C 133.867188 104.21875 134.894531 109.753906 134.972656 110.402344 C 135.644531 110.484375 136.171875 109.925781 136.777344 109.824219 C 137.34375 108.640625 136.1875 108.296875 136.445312 106.929688 C 136.492188 106.679688 136.410156 106.4375 136.070312 105.316406 C 136.117188 105.292969 136.171875 105.273438 136.21875 105.257812 C 136.375 105.632812 136.527344 106 136.703125 106.421875 C 137.84375 105.855469 137.933594 108.441406 138.945312 108.757812 C 139.601562 107.816406 138.695312 107.851562 138.847656 106.554688 C 139.074219 104.566406 138.792969 104.253906 139.222656 104.078125 C 140.847656 110.9375 139.589844 107.375 144.277344 108.039062 C 144.277344 108.039062 143.78125 107.871094 152.390625 107.988281 C 171.1875 108.257812 177.925781 106.710938 200.988281 122.972656 C 201.859375 123.585938 202.429688 124.488281 203.3125 125.054688 C 203.464844 125.152344 213.242188 135.285156 219.011719 150.664062 C 219.046875 150.765625 219.183594 150.832031 219.300781 150.941406 C 219.230469 151.03125 219.171875 151.105469 219.105469 151.1875 C 219.207031 152.023438 228.769531 170.332031 217.972656 200.398438 C 217.453125 201.859375 217.679688 201.375 217.0625 202.097656 C 217.183594 202.398438 211.046875 219.183594 194.457031 228.699219 C 167.308594 244.285156 165.757812 239.847656 162.90625 240.0625 C 163.675781 239.683594 164.023438 239.675781 164.390625 240 C 165.578125 238.742188 166.03125 241.15625 166.863281 239.933594 C 166.558594 239.53125 165.972656 239.992188 165.640625 239.433594 C 168.574219 239.175781 167.574219 240.542969 169.089844 239.492188 C 168.316406 239.269531 168.417969 239.011719 167.984375 239.296875 C 167.816406 239.410156 167.679688 239.425781 167.546875 239.167969 C 169.101562 238.496094 169.84375 238.765625 169.878906 238.109375 C 169.90625 237.644531 170.386719 237.761719 170.789062 237.566406 C 171.496094 237.226562 171.023438 237.125 171.984375 237.367188 C 172.265625 236.9375 171.789062 236.824219 171.667969 236.554688 C 173.738281 235.953125 175.789062 235.359375 177.886719 234.746094 C 177.238281 234.128906 175.90625 234.054688 175.082031 234.546875 C 174.644531 234.164062 174.117188 234.210938 173.539062 234.335938 C 172.882812 233.609375 168.855469 235.070312 168.03125 235.339844 C 167.757812 234.84375 167.734375 234.832031 167.371094 235.164062 C 167.492188 235.234375 167.605469 235.304688 167.75 235.386719 C 167.511719 235.5625 167.171875 235.445312 166.972656 235.347656 C 166.074219 234.882812 165.542969 235.605469 164.953125 235.242188 C 164.578125 235.527344 164.320312 235.230469 164.003906 235.09375 C 163.988281 235.082031 158.386719 235.035156 158.351562 235.066406 C 157.988281 234.75 157.679688 234.941406 156.476562 234.859375 C 155.65625 234.808594 156.21875 235.105469 155.96875 235.539062 C 155.714844 234.691406 155.582031 234.988281 151.707031 235.394531 C 149.328125 235.636719 150.554688 235.363281 148.730469 235.808594 C 147.917969 235.371094 145.691406 235.871094 145.539062 235.902344 C 145.410156 236.246094 145.28125 236.554688 145.171875 236.855469 C 145.375 237.34375 146.3125 236.589844 147.175781 236.953125 C 146.488281 237.140625 145.804688 237.320312 145.078125 237.519531 C 145.359375 238.550781 144.644531 238.304688 144.617188 239.707031 C 144.609375 239.917969 144.527344 240.121094 144.476562 240.34375 C 144.351562 240.34375 144.253906 240.34375 144.15625 240.34375 C 144.015625 240.542969 143.875 240.753906 143.734375 240.957031 C 143.703125 240.945312 143.679688 240.933594 143.652344 240.921875 C 144.652344 237.960938 145.3125 237.847656 144.226562 237.339844 C 144.171875 237.589844 144.125 237.832031 144.074219 238.074219 C 143.582031 238.082031 143.574219 238.058594 143.84375 237.503906 C 143.390625 237.328125 143.308594 237.691406 143.160156 238.402344 C 143.050781 238.917969 143.078125 238.835938 141.824219 238.765625 C 141.6875 239.109375 141.554688 239.445312 141.402344 239.828125 C 142.277344 239.550781 142.3125 239.507812 142.066406 239.085938 C 142.773438 239.179688 142.3125 239.050781 142.699219 241.074219 C 142.390625 241.265625 142.078125 241.460938 141.828125 241.617188 C 141.429688 240.910156 141.4375 241.003906 140.882812 242.089844 C 141.132812 242.074219 141.414062 242.054688 141.683594 242.039062 C 141.890625 242.171875 141.6875 242.695312 142.179688 242.542969 C 142.378906 242.054688 142.746094 241.636719 142.679688 241.0625 C 143.160156 239.835938 143.121094 239.699219 143.457031 239.839844 C 143.402344 240.351562 143.347656 240.871094 143.296875 241.394531 C 143.382812 241.390625 143.480469 241.378906 143.644531 241.367188 C 143.550781 241.582031 143.46875 241.769531 143.378906 242.003906 C 143.511719 242.078125 143.644531 242.15625 143.808594 242.25 C 143.710938 242.511719 143.675781 242.820312 143.261719 242.355469 C 143.273438 243.34375 143.109375 244.183594 142.699219 245.132812 C 142.664062 244.886719 142.652344 244.785156 142.636719 244.667969 C 142.429688 245.03125 142.230469 245.382812 142.003906 245.796875 C 142.273438 246.070312 141.757812 247.621094 141.367188 247.867188 C 141.382812 247.550781 141.402344 247.242188 141.417969 246.929688 L 141.40625 246.953125 " fill-opacity="1" fill-rule="nonzero"/><path fill="#000000" d="M 107.652344 120.5 C 107.832031 119.910156 107.832031 119.910156 107.414062 119.777344 C 107.277344 120.082031 107.574219 120.203125 107.652344 120.5 Z M 107.402344 146.570312 C 107.179688 146.78125 106.992188 146.949219 106.808594 147.121094 C 107.089844 147.699219 107.679688 147.085938 107.402344 146.570312 Z M 107.621094 139.972656 C 107.324219 140.847656 107.390625 141.632812 107.101562 142.46875 C 107.980469 142.097656 107.441406 141.070312 107.84375 140.402344 C 107.875 140.355469 107.75 140.210938 107.621094 139.972656 Z M 108.632812 130.96875 C 107.597656 130.683594 107.726562 134.019531 108.78125 131.945312 C 108.503906 131.605469 108.503906 131.605469 108.632812 130.96875 Z M 107.957031 145.800781 C 107.960938 145.183594 107.585938 144.789062 107.785156 144.238281 C 107.878906 143.988281 107.9375 143.570312 107.804688 143.515625 C 107.585938 143.601562 107.371094 143.6875 107.273438 143.734375 C 107.289062 144.546875 107.3125 145.296875 107.335938 146.203125 C 107.65625 145.992188 107.839844 145.875 107.957031 145.800781 Z M 107.574219 153.191406 C 107.757812 153 107.550781 152.976562 108.445312 153.246094 C 108.335938 153.636719 108.21875 154.027344 108.101562 154.445312 C 107.714844 154.613281 107.300781 154.800781 106.867188 154.992188 C 106.710938 154.53125 106.722656 154.117188 107.191406 153.753906 C 107.019531 153.671875 106.902344 153.609375 106.761719 153.539062 C 106.828125 151.847656 107.980469 152.210938 108.125 151.253906 C 107.78125 151.339844 107.675781 150.847656 107.300781 150.960938 C 107.277344 150.964844 107.203125 150.902344 107.207031 150.894531 C 107.335938 150.503906 106.863281 150.65625 106.75 150.421875 C 107.054688 150.3125 107.445312 150.476562 107.597656 150.105469 C 107.382812 149.773438 107.179688 150.089844 106.875 150.089844 C 106.972656 149.832031 107.054688 149.609375 107.148438 149.363281 C 107.421875 149.3125 107.699219 149.257812 108.042969 149.195312 C 107.792969 148.421875 107.421875 148.796875 107.550781 147.945312 C 107.433594 148.027344 107.320312 148.109375 107.179688 148.214844 C 107.148438 148.085938 107.121094 147.96875 107.085938 147.820312 C 106.921875 147.949219 107.003906 147.722656 106.726562 148.832031 C 106.347656 148.148438 107.078125 145.921875 106.449219 143.941406 C 106.664062 143.882812 106.804688 143.847656 106.949219 143.8125 C 106.371094 142.691406 106.085938 143.742188 106.417969 142.105469 C 106.484375 141.800781 105.746094 138.339844 106.773438 137.828125 C 105.804688 137.128906 106.367188 134.289062 106.472656 133.960938 C 106.089844 131.003906 105.730469 107.765625 108.515625 114.550781 C 110.136719 114.628906 110.917969 119.558594 111.070312 119.695312 C 112.183594 120.652344 111.472656 122.101562 111.152344 123.285156 C 112.644531 123.5 111.40625 124.902344 111.953125 125.890625 C 112.175781 126.292969 112.246094 127.105469 111.425781 127.847656 C 111.480469 127.207031 111.140625 124.527344 110.347656 122.203125 C 110.300781 122.207031 110.257812 122.207031 110.210938 122.214844 C 110.09375 122.464844 109.972656 122.714844 109.820312 123.039062 C 109.722656 122.902344 109.644531 122.804688 109.5 122.605469 C 109.042969 124.089844 109.058594 125.535156 109.148438 127.019531 C 108.996094 127.035156 108.863281 127.058594 108.726562 127.082031 C 108.832031 127.386719 108.808594 127.773438 109.1875 127.796875 C 109.1875 128.507812 109.1875 129.175781 109.1875 129.882812 C 109.113281 129.914062 108.996094 129.953125 108.855469 130.011719 C 108.960938 131.566406 109.664062 130.746094 109.148438 136.371094 C 108.371094 136.863281 107.816406 138.976562 108.867188 140.105469 C 108.96875 138.222656 108.78125 139.070312 109.488281 137.78125 C 109.859375 139.902344 109.089844 141.339844 109.324219 142.875 C 109.015625 143.070312 108.679688 143.28125 108.3125 143.507812 C 108.339844 143.757812 108.363281 144.011719 108.386719 144.273438 C 108.617188 144.308594 108.796875 144.34375 109.023438 144.378906 C 108.167969 144.640625 108.433594 144.414062 108.289062 146.785156 C 108.28125 146.867188 108.207031 146.996094 108.234375 147.027344 C 108.609375 147.394531 108.289062 147.785156 108.292969 148.167969 C 108.300781 148.5625 108.375 148.960938 108.429688 149.433594 C 108.691406 149.21875 108.886719 149.066406 109.128906 148.867188 C 109.046875 148.445312 108.96875 148.015625 108.886719 147.558594 C 109.019531 147.464844 109.199219 147.332031 109.453125 147.15625 C 109.628906 148.113281 109.605469 147.453125 109.605469 149.5625 C 109.054688 149.710938 109.410156 150.136719 109.664062 150.609375 C 109.527344 150.667969 109.371094 150.738281 109.140625 150.832031 C 109.136719 150.503906 108.84375 150.316406 109.066406 149.976562 C 109.183594 149.804688 108.972656 149.640625 108.710938 149.605469 C 108.558594 152.324219 106.839844 152.691406 107.597656 153.179688 C 107.511719 153.292969 107.429688 153.402344 107.273438 153.613281 C 107.679688 153.550781 107.75 153.800781 107.839844 154.039062 C 108.214844 153.527344 108.171875 153.414062 107.574219 153.191406 " fill-opacity="1" fill-rule="nonzero"/><path fill="#000000" d="M 113.941406 165.390625 C 113.921875 165.386719 113.847656 165.355469 113.71875 165.308594 C 114.269531 164.230469 113.957031 162.960938 113.957031 160.042969 C 113.753906 159.984375 113.625 159.945312 113.457031 159.898438 C 113.660156 159.539062 114.316406 159.570312 113.75 157.71875 C 113.660156 157.898438 113.578125 158.078125 113.492188 158.261719 C 113.480469 156.105469 114.574219 157.3125 113.46875 154.964844 C 113.578125 154.804688 113.695312 154.65625 113.8125 154.492188 C 113.632812 153.703125 113.492188 150.960938 113.695312 150.753906 C 113.292969 150.199219 113.5625 149.574219 113.503906 148.984375 C 113.445312 148.417969 113.644531 148.183594 114.238281 148.054688 C 113.496094 146.992188 113.46875 116.679688 114.039062 115.539062 C 113.625 115.394531 113.367188 114.859375 114.152344 114.371094 C 114.128906 114.199219 114.097656 113.972656 114.058594 113.679688 C 114.214844 113.652344 114.390625 113.617188 114.613281 113.570312 C 114.671875 114.5625 114.6875 168.789062 114.6875 169.582031 C 114.933594 169.6875 115.132812 169.882812 115.132812 170.300781 C 115.144531 171.703125 115.566406 170.464844 115.496094 172.652344 C 115.453125 174.046875 115.164062 173.328125 115.039062 173.839844 C 114.640625 175.445312 114.695312 174.523438 114.695312 177.507812 C 115.109375 177.378906 114.722656 177.035156 114.898438 176.789062 C 115.058594 176.84375 115.226562 176.902344 115.402344 176.960938 C 115.613281 176.808594 115.4375 176.355469 115.894531 176.351562 C 115.957031 177.066406 116.535156 177.8125 115.660156 178.554688 C 115.558594 178.269531 115.488281 178.058594 115.414062 177.847656 C 114.621094 178.09375 114.421875 178.414062 114.613281 179.191406 C 114.835938 180.050781 114.515625 179.375 114.472656 180.839844 C 114.457031 181.472656 114.421875 181.546875 113.882812 182.007812 C 113.882812 182.007812 113.941406 165.390625 113.941406 165.390625 " fill-opacity="1" fill-rule="nonzero"/><path fill="#000000" d="M 109.84375 162.398438 C 110.195312 162.925781 110.421875 162.386719 110.269531 162.246094 C 110.066406 162.054688 109.949219 162.222656 109.84375 162.398438 Z M 110.773438 176.847656 C 110.222656 175.941406 111.101562 173.949219 110.253906 173.027344 C 109.824219 172.558594 109.703125 172.074219 109.640625 171.476562 C 109.234375 171.710938 109.476562 172.375 108.84375 172.382812 C 108.769531 171.476562 109.511719 171.183594 110.078125 170.699219 C 110.046875 170.414062 110.019531 170.101562 109.988281 169.777344 C 109.890625 169.757812 109.792969 169.746094 109.632812 169.722656 C 109.632812 169.402344 109.632812 169.082031 109.632812 168.707031 C 109.117188 168.945312 109.441406 169.464844 109.171875 169.742188 C 108.832031 169.71875 108.925781 169.671875 109.105469 167.765625 C 109.820312 167.71875 109.535156 167.753906 110.199219 167.617188 C 109.5 167.027344 109.761719 166.308594 109.675781 165.621094 C 110.339844 165.71875 110.359375 164.660156 110.429688 164.164062 C 110.382812 164.09375 110.269531 163.929688 110.117188 163.703125 C 109.984375 163.882812 109.882812 164.011719 109.746094 164.199219 C 109.59375 163.9375 109.445312 163.691406 109.289062 163.421875 C 110.054688 162.550781 109.339844 162.394531 109.445312 161.863281 C 109.703125 160.511719 109.421875 160.40625 109.769531 158.507812 C 109.679688 158.390625 109.511719 158.171875 109.335938 157.9375 C 109.710938 157.21875 109.59375 156.429688 109.632812 155.613281 C 109.5 155.660156 109.375 155.699219 109.253906 155.746094 C 109.078125 155.53125 108.902344 155.320312 108.792969 155.179688 C 108.792969 153.503906 108.675781 153.820312 109.558594 152.648438 C 109.59375 152.855469 109.628906 153.09375 109.667969 153.375 C 110.492188 152.996094 109.917969 148.945312 110.3125 147.878906 C 110.820312 148.21875 111.148438 176.019531 110.753906 176.847656 L 110.773438 176.847656 " fill-opacity="1" fill-rule="nonzero"/><path fill="#000000" d="M 119.527344 190.210938 C 119.46875 190.050781 118.921875 190.035156 119.308594 189.527344 C 120.382812 191 119.855469 202.917969 119.207031 203.257812 C 119.597656 207.769531 118.578125 209.445312 119.355469 210.230469 C 118.875 210.6875 119.015625 219.085938 119.015625 219.238281 C 117.660156 219.039062 118.378906 198.257812 118.414062 196.898438 C 118.902344 196.242188 118.496094 195.441406 118.773438 194.734375 C 119.136719 193.804688 118.542969 193.996094 118.675781 193.285156 C 118.96875 191.652344 118.878906 192.085938 119.527344 190.210938 " fill-opacity="1" fill-rule="nonzero"/><path fill="#000000" d="M 111.496094 234.75 C 111.1875 234.820312 110.925781 234.882812 110.617188 234.953125 C 110.660156 235.113281 110.695312 235.230469 110.742188 235.375 C 110.632812 235.398438 110.511719 235.417969 110.339844 235.445312 C 110.328125 235.230469 110.316406 235.046875 110.304688 234.835938 C 110.535156 234.785156 110.726562 234.738281 110.90625 234.699219 C 110.964844 234.316406 110.621094 234.441406 110.5625 234.382812 C 110.382812 230.671875 110.058594 230.742188 110.246094 229.859375 C 110.011719 228.675781 109.265625 223.535156 110.117188 222.597656 C 109.960938 222.359375 109.808594 222.136719 109.632812 221.875 C 110.117188 221.171875 109.894531 221.792969 109.894531 219.992188 C 110.785156 220.0625 109.867188 230.203125 111.152344 232.632812 C 111.503906 233.300781 111.496094 234.042969 111.496094 234.75 " fill-opacity="1" fill-rule="nonzero"/><path fill="#000000" d="M 121.113281 203.730469 C 121.171875 204.179688 123.105469 213.585938 121.703125 213.613281 C 121.699219 214.039062 121.882812 214.46875 121.441406 214.800781 C 120.839844 213.714844 121.070312 204.355469 121.070312 203.734375 C 121.082031 203.734375 121.101562 203.734375 121.113281 203.730469 " fill-opacity="1" fill-rule="nonzero"/><path fill="#000000" d="M 115.941406 222.558594 C 115.542969 221.96875 115.847656 221.480469 115.304688 221.039062 C 115.167969 220.925781 115.304688 220.394531 115.589844 218.460938 C 116.546875 218.742188 115.769531 218.722656 116.015625 220.429688 C 116.117188 221.097656 116.046875 221.78125 116.046875 222.464844 C 116.011719 222.492188 115.976562 222.523438 115.941406 222.558594 " fill-opacity="1" fill-rule="nonzero"/><path fill="#000000" d="M 106.808594 161.3125 C 106.808594 159.078125 106.996094 159.21875 106.75 158.933594 C 106.703125 158.878906 106.726562 158.695312 106.785156 158.628906 C 107.113281 158.265625 107.0625 157.859375 106.960938 157.414062 C 107.171875 157.289062 107.371094 157.171875 107.6875 156.980469 C 106.980469 158.507812 107.890625 160.113281 106.808594 161.3125 " fill-opacity="1" fill-rule="nonzero"/><g clip-path="url(#id7)"><path fill="#000000" d="M 125.210938 99.285156 C 126.835938 103.808594 126.671875 103.246094 126.589844 103.464844 C 125.738281 102.609375 125.226562 100.265625 125.023438 99.324219 C 125.085938 99.3125 125.144531 99.296875 125.210938 99.285156 " fill-opacity="1" fill-rule="nonzero"/></g><path fill="#000000" d="M 115.332031 173.792969 C 115.71875 173.925781 115.886719 174.164062 115.828125 174.453125 C 115.730469 174.949219 116.167969 175.597656 115.410156 175.941406 C 115.269531 175.796875 115.117188 175.632812 114.941406 175.441406 C 115.0625 174.914062 115.199219 174.363281 115.332031 173.792969 " fill-opacity="1" fill-rule="nonzero"/><path fill="#000000" d="M 109.21875 210.667969 C 109.679688 210.359375 109.878906 209.921875 109.816406 209.304688 C 110.148438 209.769531 110.175781 210.914062 109.925781 211.9375 C 109.75 212.023438 109.558594 212.113281 109.371094 212.207031 C 109.347656 212.1875 109.324219 212.171875 109.300781 212.148438 C 109.382812 212.023438 109.464844 211.90625 109.550781 211.773438 C 109.445312 211.417969 109.335938 211.054688 109.21875 210.667969 " fill-opacity="1" fill-rule="nonzero"/><path fill="#000000" d="M 108.160156 171.402344 C 106.808594 172.148438 108.085938 171.84375 107.144531 173.867188 C 106.910156 173.605469 106.996094 173.714844 106.996094 171.253906 C 107.40625 171.308594 107.738281 171.347656 108.160156 171.402344 " fill-opacity="1" fill-rule="nonzero"/><path fill="#000000" d="M 121.59375 223.773438 C 121.421875 220.792969 121.277344 219.015625 121.621094 218.914062 C 121.628906 219.074219 121.835938 223.429688 121.816406 223.773438 C 121.738281 223.773438 121.664062 223.773438 121.59375 223.773438 " fill-opacity="1" fill-rule="nonzero"/><path fill="#000000" d="M 118.855469 229.359375 C 118.25 229.097656 118.464844 226.738281 118.476562 226.585938 C 119.054688 226.632812 118.921875 226.460938 119.101562 228.414062 C 118.699219 228.777344 118.699219 228.777344 118.839844 229.378906 L 118.855469 229.359375 " fill-opacity="1" fill-rule="nonzero"/><path fill="#000000" d="M 118.382812 225.390625 C 118.957031 224.46875 118.667969 223.5 118.746094 222.574219 C 119.632812 225.378906 118.566406 227.132812 118.394531 225.871094 C 118.542969 225.800781 118.691406 225.730469 118.960938 225.601562 C 118.710938 225.515625 118.566406 225.460938 118.382812 225.390625 " fill-opacity="1" fill-rule="nonzero"/><path fill="#000000" d="M 114.945312 180.636719 C 115.09375 180.976562 115.871094 181.933594 114.71875 182.757812 C 114.859375 182.027344 114.449219 181.359375 114.945312 180.636719 " fill-opacity="1" fill-rule="nonzero"/><path fill="#000000" d="M 116.402344 186.570312 C 116.402344 186.03125 116.402344 185.632812 116.402344 185.164062 C 116.152344 185.234375 115.992188 185.277344 115.746094 185.339844 C 116.003906 184.558594 116.367188 184.773438 116.617188 184.097656 C 116.757812 184.839844 116.671875 186.117188 116.402344 186.570312 " fill-opacity="1" fill-rule="nonzero"/><path fill="#000000" d="M 110.753906 176.847656 C 111.023438 177.601562 111 176.789062 110.914062 179.792969 C 110.476562 179.09375 110.480469 179.09375 110.660156 178.480469 C 110.691406 178.363281 110.742188 178.191406 110.691406 178.109375 C 110.375 177.660156 110.65625 177.261719 110.773438 176.855469 C 110.773438 176.847656 110.753906 176.847656 110.753906 176.847656 " fill-opacity="1" fill-rule="nonzero"/><path fill="#000000" d="M 109.871094 204.28125 C 110.03125 204.261719 110.160156 204.25 110.277344 204.238281 C 110.382812 204.390625 110.359375 204 110.246094 206.558594 C 110.234375 206.828125 110.140625 207.007812 109.78125 206.96875 C 110.164062 204.140625 109.824219 205 109.871094 204.28125 " fill-opacity="1" fill-rule="nonzero"/><path fill="#000000" d="M 107.101562 161.464844 C 107.359375 161.570312 107.539062 161.640625 107.785156 161.738281 C 107.511719 162.152344 107.570312 162.796875 106.878906 163.070312 C 106.957031 162.5 107.027344 162.011719 107.101562 161.464844 " fill-opacity="1" fill-rule="nonzero"/><path fill="#000000" d="M 106.914062 169.582031 C 106.839844 169.128906 106.769531 169.675781 107.195312 167.355469 C 107.597656 168.347656 107.5 169.015625 106.914062 169.582031 " fill-opacity="1" fill-rule="nonzero"/><path fill="#000000" d="M 122.410156 102.03125 C 122.328125 102.835938 122.585938 103.496094 122.902344 104.265625 C 121.820312 103.632812 121.859375 102.375 122.410156 102.03125 " fill-opacity="1" fill-rule="nonzero"/><path fill="#000000" d="M 116.128906 222.675781 C 116.199219 223.433594 116.265625 224.199219 116.34375 224.960938 C 116.3125 224.964844 116.277344 224.972656 116.253906 224.976562 C 116.085938 224.703125 115.917969 224.425781 115.742188 224.140625 C 116.265625 223.636719 115.648438 222.882812 116.128906 222.675781 " fill-opacity="1" fill-rule="nonzero"/><path fill="#000000" d="M 115.15625 179.800781 C 115.917969 179.980469 115.546875 179.070312 116.074219 178.96875 C 116.058594 179.390625 116.039062 179.777344 116.015625 180.222656 C 115.792969 180.15625 115.636719 180.117188 115.460938 180.0625 C 115.375 180.1875 115.273438 180.316406 115.179688 180.4375 C 115.152344 180.429688 115.121094 180.417969 115.097656 180.40625 C 115.117188 180.234375 115.132812 180.050781 115.15625 179.800781 " fill-opacity="1" fill-rule="nonzero"/><path fill="#000000" d="M 107.203125 167.128906 C 107.078125 166.597656 106.949219 166.074219 107.0625 165.46875 C 107.277344 165.53125 107.445312 165.585938 107.558594 165.621094 C 107.324219 166.816406 107.46875 166.824219 107.203125 167.128906 " fill-opacity="1" fill-rule="nonzero"/><path fill="#000000" d="M 110.714844 180.765625 C 110.925781 181.453125 110.820312 182.148438 110.761719 182.839844 C 110.527344 182.15625 110.511719 181.460938 110.714844 180.765625 " fill-opacity="1" fill-rule="nonzero"/><path fill="#000000" d="M 118.839844 229.378906 C 118.921875 229.214844 119.007812 229.050781 119.136719 228.804688 C 119.3125 229.40625 118.980469 229.519531 119.132812 230.289062 C 119.148438 230.394531 118.984375 230.535156 118.890625 230.671875 C 118.414062 230.171875 118.6875 229.769531 118.855469 229.359375 C 118.855469 229.359375 118.839844 229.378906 118.839844 229.378906 " fill-opacity="1" fill-rule="nonzero"/><path fill="#000000" d="M 116.191406 217.027344 C 116.3125 217.90625 116.203125 218.078125 115.507812 218.191406 C 115.742188 217.253906 115.742188 217.253906 116.191406 217.027344 " fill-opacity="1" fill-rule="nonzero"/><path fill="#000000" d="M 112.632812 134.816406 C 112.5625 135.277344 112.199219 135.484375 111.960938 135.792969 C 112.125 135.925781 112.058594 135.878906 112.222656 135.972656 C 112.011719 136.042969 111.824219 136.109375 111.574219 136.195312 C 111.753906 135.574219 111.894531 135.019531 112.632812 134.816406 " fill-opacity="1" fill-rule="nonzero"/><path fill="#000000" d="M 120.464844 184.839844 C 120.761719 185.535156 120.722656 186.386719 120.382812 186.726562 C 120.183594 186.046875 120.445312 185.441406 120.464844 184.839844 " fill-opacity="1" fill-rule="nonzero"/><path fill="#000000" d="M 107.148438 155.269531 C 107.453125 155.378906 107.628906 155.4375 107.808594 155.503906 C 107.5625 155.863281 107.335938 156.203125 107.101562 156.546875 C 107.054688 156.535156 107.007812 156.519531 106.960938 156.5 C 107.019531 156.109375 107.078125 155.71875 107.148438 155.269531 " fill-opacity="1" fill-rule="nonzero"/><path fill="#000000" d="M 109.640625 209.179688 C 109.796875 208.527344 109.609375 207.921875 110.046875 207.382812 C 110.046875 209.335938 110.136719 208.925781 109.640625 209.179688 " fill-opacity="1" fill-rule="nonzero"/><path fill="#000000" d="M 108.179688 166.34375 C 108.304688 165.71875 108.257812 165.425781 107.992188 165.03125 C 108.085938 164.917969 108.191406 164.796875 108.300781 164.667969 C 108.675781 165.257812 108.65625 165.730469 108.179688 166.34375 " fill-opacity="1" fill-rule="nonzero"/><path fill="#000000" d="M 145.207031 240.496094 C 144.96875 241.199219 144.722656 241.894531 144.480469 242.589844 C 144.433594 242.578125 144.394531 242.570312 144.351562 242.558594 C 144.429688 242.171875 144.773438 240.339844 145.21875 240.507812 L 145.207031 240.496094 " fill-opacity="1" fill-rule="nonzero"/><path fill="#000000" d="M 116.324219 213.660156 C 115.863281 214.660156 116.09375 214.34375 115.363281 214.816406 C 115.332031 214.785156 115.304688 214.753906 115.269531 214.726562 C 115.460938 214.480469 115.648438 214.226562 115.886719 213.917969 C 115.875 213.84375 115.839844 213.683594 115.8125 213.519531 C 115.992188 213.566406 116.175781 213.621094 116.324219 213.660156 " fill-opacity="1" fill-rule="nonzero"/><path fill="#000000" d="M 118.832031 220.785156 C 118.453125 220.457031 118.414062 220.039062 118.699219 219.496094 C 118.957031 219.761719 119.003906 220.207031 118.832031 220.785156 " fill-opacity="1" fill-rule="nonzero"/><path fill="#000000" d="M 111.953125 129.332031 C 111.753906 128.890625 111.789062 128.5625 112.226562 128.355469 C 112.5625 128.808594 112.550781 128.867188 111.953125 129.332031 " fill-opacity="1" fill-rule="nonzero"/><path fill="#000000" d="M 145.21875 240.507812 C 145.070312 240.140625 145.453125 238.847656 145.558594 238.46875 C 145.722656 238.816406 145.644531 239.199219 145.207031 240.496094 C 145.207031 240.496094 145.21875 240.507812 145.21875 240.507812 " fill-opacity="1" fill-rule="nonzero"/><path fill="#000000" d="M 108.511719 168.316406 C 108.277344 168.234375 108.171875 168.191406 108.054688 168.15625 C 107.972656 168.261719 107.890625 168.371094 107.738281 168.582031 C 107.710938 168.085938 107.886719 167.789062 108.121094 167.402344 C 108.246094 167.707031 108.347656 167.933594 108.511719 168.316406 " fill-opacity="1" fill-rule="nonzero"/><path fill="#000000" d="M 120.109375 162.871094 C 119.816406 162.304688 119.785156 161.652344 120.109375 161.28125 C 120.109375 161.863281 120.109375 162.371094 120.109375 162.871094 " fill-opacity="1" fill-rule="nonzero"/><path fill="#000000" d="M 121.628906 226.097656 C 121.429688 224.507812 121.324219 224.492188 121.847656 224.5625 C 121.796875 225.066406 121.746094 225.574219 121.691406 226.082031 C 121.675781 226.085938 121.652344 226.09375 121.628906 226.097656 " fill-opacity="1" fill-rule="nonzero"/><path fill="#000000" d="M 119.902344 176.636719 C 119.902344 175.9375 119.902344 175.234375 119.902344 174.539062 C 119.949219 174.539062 119.996094 174.539062 120.042969 174.539062 C 120.089844 175.242188 120.101562 175.9375 119.902344 176.636719 " fill-opacity="1" fill-rule="nonzero"/><path fill="#000000" d="M 114.332031 182.496094 C 114.332031 183.074219 114.332031 183.652344 114.332031 184.226562 C 114.292969 184.226562 114.25 184.226562 114.210938 184.226562 C 114.210938 183.644531 114.210938 183.066406 114.210938 182.496094 C 114.25 182.496094 114.292969 182.496094 114.332031 182.496094 " fill-opacity="1" fill-rule="nonzero"/><path fill="#000000" d="M 112.148438 131.675781 C 112.585938 131.929688 112.363281 132.261719 112.496094 132.523438 C 112.296875 132.613281 112.152344 132.675781 111.964844 132.753906 C 112.03125 132.378906 112.082031 132.050781 112.148438 131.675781 " fill-opacity="1" fill-rule="nonzero"/><path fill="#000000" d="M 121.796875 169.535156 C 121.210938 169.695312 121.09375 169.558594 121.175781 168.8125 C 121.394531 169.0625 121.59375 169.289062 121.796875 169.535156 " fill-opacity="1" fill-rule="nonzero"/><path fill="#000000" d="M 116.835938 183.621094 C 116.625 183.585938 116.507812 183.570312 116.308594 183.542969 C 116.476562 183.203125 116.628906 182.914062 116.769531 182.636719 C 116.824219 182.648438 116.875 182.652344 116.921875 182.664062 C 116.898438 182.957031 116.871094 183.25 116.835938 183.621094 " fill-opacity="1" fill-rule="nonzero"/><path fill="#000000" d="M 116.5 156.828125 C 116.5 157.238281 116.5 157.648438 116.5 158.054688 C 116.152344 157.652344 116.320312 157.242188 116.324219 156.835938 C 116.382812 156.835938 116.441406 156.828125 116.5 156.828125 " fill-opacity="1" fill-rule="nonzero"/><path fill="#000000" d="M 112.25 139.394531 C 112.207031 138.984375 112.164062 138.621094 112.128906 138.277344 C 112.730469 138.464844 112.773438 138.679688 112.25 139.394531 " fill-opacity="1" fill-rule="nonzero"/><path fill="#000000" d="M 119.320312 188.257812 C 119.832031 188.589844 119.078125 189.007812 119.597656 189.285156 C 118.925781 189.503906 119.15625 188.984375 119.320312 188.257812 " fill-opacity="1" fill-rule="nonzero"/><path fill="#000000" d="M 118.875 107.917969 C 118.726562 107.378906 118.769531 106.824219 118.757812 106.273438 C 118.84375 106.8125 118.9375 107.355469 119.027344 107.894531 C 118.972656 107.898438 118.921875 107.910156 118.875 107.917969 " fill-opacity="1" fill-rule="nonzero"/><path fill="#000000" d="M 174.023438 234.890625 C 174.421875 234.859375 174.730469 234.84375 175.027344 234.824219 C 174.699219 235.359375 174.632812 235.363281 174.023438 234.890625 " fill-opacity="1" fill-rule="nonzero"/><path fill="#000000" d="M 115.566406 183.066406 C 115.695312 182.746094 115.496094 182.394531 115.871094 182.195312 C 116.121094 182.671875 116.117188 182.6875 115.566406 183.066406 " fill-opacity="1" fill-rule="nonzero"/><path fill="#000000" d="M 109.253906 143.46875 C 109.265625 143.613281 109.28125 143.746094 109.300781 143.910156 C 109.09375 143.957031 108.921875 144 108.757812 144.035156 C 108.546875 143.816406 108.675781 143.675781 109.253906 143.46875 " fill-opacity="1" fill-rule="nonzero"/><path fill="#000000" d="M 109.277344 156.628906 C 109.171875 156.953125 109.5 157.347656 109.046875 157.671875 C 108.957031 157.25 108.992188 156.917969 109.277344 156.628906 " fill-opacity="1" fill-rule="nonzero"/><path fill="#000000" d="M 141.417969 246.929688 C 141.273438 247.183594 141.167969 247.476562 140.710938 247.511719 C 140.894531 247.195312 141.046875 246.9375 141.226562 246.628906 C 141.308594 246.78125 141.359375 246.867188 141.40625 246.953125 C 141.40625 246.953125 141.417969 246.929688 141.417969 246.929688 " fill-opacity="1" fill-rule="nonzero"/><path fill="#000000" d="M 115.535156 187.230469 C 115.375 186.691406 115.8125 186.773438 116.039062 186.570312 C 115.96875 186.976562 115.96875 186.976562 115.535156 187.230469 " fill-opacity="1" fill-rule="nonzero"/><path fill="#000000" d="M 158.546875 235.488281 C 158.222656 235.464844 157.902344 235.714844 157.476562 235.546875 C 157.867188 235.300781 158.195312 235.269531 158.546875 235.488281 " fill-opacity="1" fill-rule="nonzero"/><path fill="#000000" d="M 110.550781 146.996094 C 110.550781 147.203125 110.550781 147.417969 110.550781 147.667969 C 110.140625 147.371094 110.160156 147.203125 110.550781 146.996094 " fill-opacity="1" fill-rule="nonzero"/><path fill="#000000" d="M 169.574219 238.105469 C 169.136719 238.175781 168.699219 238.25 168.265625 238.320312 C 168.261719 238.304688 168.253906 238.28125 168.25 238.257812 C 168.675781 238.144531 169.101562 238.035156 169.535156 237.925781 C 169.546875 237.984375 169.558594 238.039062 169.574219 238.105469 " fill-opacity="1" fill-rule="nonzero"/><path fill="#000000" d="M 118.65625 222.316406 C 118.640625 221.855469 118.625 221.523438 118.605469 221.054688 C 118.902344 221.855469 118.902344 221.855469 118.65625 222.316406 " fill-opacity="1" fill-rule="nonzero"/><path fill="#000000" d="M 165.648438 235.855469 C 165.324219 235.773438 165.089844 236.375 164.699219 235.9375 C 165.003906 235.667969 165.332031 235.808594 165.648438 235.855469 " fill-opacity="1" fill-rule="nonzero"/><path fill="#000000" d="M 123.421875 227.742188 C 123.394531 227.332031 123.363281 226.921875 123.335938 226.507812 C 123.375 226.507812 123.421875 226.507812 123.46875 226.503906 C 123.46875 226.921875 123.46875 227.339844 123.46875 227.757812 C 123.449219 227.753906 123.4375 227.746094 123.421875 227.742188 " fill-opacity="1" fill-rule="nonzero"/><path fill="#000000" d="M 162.105469 235.679688 C 162.351562 235.625 162.589844 235.574219 162.835938 235.523438 C 162.839844 235.582031 162.851562 235.636719 162.863281 235.695312 C 162.621094 235.726562 162.375 235.761719 162.121094 235.789062 C 162.117188 235.753906 162.109375 235.71875 162.105469 235.679688 " fill-opacity="1" fill-rule="nonzero"/><path fill="#000000" d="M 146.222656 182.9375 C 145.871094 182.625 145.988281 178.953125 146.253906 178.660156 C 146.253906 181.898438 146.644531 181.835938 146.207031 182.949219 L 146.222656 182.9375 " fill-opacity="1" fill-rule="nonzero"/><path fill="#000000" d="M 146.207031 182.949219 C 146.558594 183.394531 146.339844 185.222656 145.917969 185.785156 C 145.804688 185.476562 145.882812 183.582031 146.21875 182.9375 C 146.222656 182.9375 146.207031 182.949219 146.207031 182.949219 " fill-opacity="1" fill-rule="nonzero"/><path fill="#000000" d="M 146.078125 188.84375 C 146.125 188.089844 146.171875 187.335938 146.21875 186.5625 C 146.683594 186.714844 146.417969 188.410156 146.257812 188.855469 C 146.199219 188.847656 146.140625 188.84375 146.078125 188.84375 " fill-opacity="1" fill-rule="nonzero"/><path fill="#000000" d="M 145.988281 177.433594 C 145.988281 176.707031 145.988281 176.128906 145.988281 175.511719 C 146.371094 175.5625 146.070312 175.609375 146.394531 176.660156 C 146.28125 176.871094 146.171875 177.082031 145.988281 177.433594 " fill-opacity="1" fill-rule="nonzero"/><path fill="#000000" d="M 165.875 218.535156 C 165.347656 218.535156 164.980469 218.535156 164.59375 218.535156 C 164.769531 218.074219 165.132812 218.0625 165.875 218.535156 " fill-opacity="1" fill-rule="nonzero"/></svg>